<svg width="24" height="24" viewBox="0 0 24 24" fill="none" xmlns="http://www.w3.org/2000/svg">
<path d="M21 20C21 20.5525 20.5525 21 20 21H4C3.4475 21 3 20.5525 3 20V4C3 3.4475 3.4475 3 4 3H20C20.5525 3 21 3.4475 21 4V20Z" fill="url(#paint0_linear)"/>
<path opacity="0.05" d="M12.5 19V13.5H10.5V10.5H12.5V9.43097C12.5 6.90997 13.833 5.52197 16.2525 5.52197C17.25 5.52197 17.791 5.59197 18.0515 5.62597L18.4805 5.68147L18.5 6.11197V8.49997H16.6825C16.1185 8.49997 16 9.18897 16 9.76747V10.5H18.3615L17.8975 13.5H16V19H12.5Z" fill="black"/>
<path opacity="0.07" d="M12.75 18.75V13.25H10.75V10.75H12.75V9.43097C12.75 7.03697 13.961 5.77197 16.2525 5.77197C17.238 5.77197 17.7675 5.84097 18.0225 5.87397L18.2405 5.90247L18.2505 6.12347V8.24997H16.683C15.8715 8.24997 15.7505 9.20047 15.7505 9.76747V10.75H18.0705L17.684 13.25H15.75V18.75H12.75Z" fill="black"/>
<path d="M16.6825 7.99998H18V6.12298C17.754 6.09098 17.2345 6.02148 16.2525 6.02148C14.202 6.02148 13 7.06148 13 9.43098V11H11V13H13V18.5H15.5V13H17.469L17.778 11H15.5V9.76748C15.5 8.83048 15.806 7.99998 16.6825 7.99998Z" fill="white"/>
<defs>
<linearGradient id="paint0_linear" x1="3.114" y1="2.448" x2="21.0385" y2="21.716" gradientUnits="userSpaceOnUse">
<stop stop-color="#0D61A9"/>
<stop offset="1" stop-color="#16528C"/>
</linearGradient>
</defs>
</svg>
