<svg width="24" height="24" viewBox="0 0 24 24" fill="none" xmlns="http://www.w3.org/2000/svg">
<path d="M2.2877 9.13058C2.47644 8.57736 2.7921 8.19661 3.23468 7.98834C3.67725 7.78007 4.42359 7.54902 5.58749 7.67594C6.06993 7.79228 7.14588 8.05815 8.33898 8.74007C9.52755 9.4194 9.76271 9.72449 9.76271 9.72449C10.3411 10.233 10.5445 10.6397 10.7479 11.1482C10.9513 11.8601 10.8814 12.2522 10.7797 12.659C10.2013 13.6613 9.00204 13.9607 9.00204 13.9607C9.00204 13.9607 5.44105 14.4626 4.42359 14.4626C3.40611 14.4626 1.62712 15.4503 1.62712 15.4503L1.63688 15.3527H1.75404C1.91675 15.3527 3.18624 14.0297 3.30339 13.9256C3.42055 13.815 3.48889 13.6815 3.50841 13.5253L4.80647 7.99811C3.99291 8.01763 3.41692 8.14454 3.07848 8.37885C2.90275 8.50251 2.76932 8.62292 2.6782 8.74007C2.58709 8.85072 2.49271 8.9939 2.39509 9.16964L2.2877 9.13058ZM5.44105 7.99811C5.44105 7.99811 3.50841 13.1862 5.07498 13.6019C6.64155 14.0176 6.89325 13.9021 6.89325 13.9021C7.79874 13.898 8.02166 13.6855 8.41867 13.4953C8.81569 13.3052 8.91738 13.1821 9.33393 12.7835C9.74071 12.1733 9.73428 12.1286 9.76271 11.7665C9.74071 11.1564 9.48822 10.699 9.13054 10.3428C8.71399 9.92788 8.40891 9.62279 7.9102 9.32584L5.44105 7.99811Z" fill="black"/>
<path d="M22.2557 16.5592C22.2948 16.5592 22.3338 16.5592 22.3729 16.5592V16.6568C22.1906 16.6828 21.9856 16.6959 21.7578 16.6959C21.5365 16.6959 21.2599 16.647 20.928 16.5494C20.6026 16.4518 20.3064 16.2696 20.0396 16.0027C19.4929 15.456 19.1609 14.7466 19.0438 13.8744L18.4483 9.53003L16.4176 14.1185C16.2354 14.5155 16.1247 14.8475 16.0857 15.1143H15.9881L13.4595 9.61789L13.03 14.47C13.0169 14.5806 13.0495 14.6782 13.1276 14.7628C13.2122 14.8475 13.3033 14.8898 13.4009 14.8898H13.5571V14.9776H11.6632V14.88H11.8194C11.9951 14.88 12.1481 14.8279 12.2782 14.7238C12.4149 14.6131 12.4995 14.47 12.5321 14.2942L13.1471 8.96379C12.5744 7.83782 11.8877 7.27484 11.0872 7.27484C11.0156 7.27484 10.9407 7.27809 10.8626 7.2846V7.18698C11.0384 7.14142 11.1816 7.11864 11.2922 7.11864C11.4028 7.11864 11.5233 7.12515 11.6534 7.13816C11.7836 7.14467 11.9365 7.17396 12.1123 7.22603C12.288 7.2781 12.454 7.3562 12.6102 7.46033C12.7664 7.55796 12.903 7.66209 13.0202 7.77274C13.1374 7.87687 13.248 7.99403 13.3521 8.1242C13.5279 8.3585 13.6678 8.58304 13.7719 8.79782L16.1247 13.894L18.7509 8.00704H18.8388L19.7467 13.7866C19.8834 14.6978 20.1763 15.3877 20.6254 15.8563C21.0809 16.3249 21.6244 16.5592 22.2557 16.5592Z" fill="black"/>
</svg>
