<svg width="72" height="72" viewBox="0 0 72 72" fill="none" xmlns="http://www.w3.org/2000/svg">
<path d="M6.86308 27.3918C7.42932 25.7321 8.3763 24.5899 9.70403 23.965C11.0317 23.3402 13.2708 22.6471 16.7625 23.0278C18.2098 23.3768 21.4376 24.1745 25.0169 26.2202C28.5827 28.2582 29.2881 29.1735 29.2881 29.1735C31.0233 30.6989 31.6335 31.9192 32.2437 33.4447C32.8538 35.5803 32.6441 36.7567 32.339 37.977C30.6038 40.9839 27.0061 41.8821 27.0061 41.8821C27.0061 41.8821 16.3231 43.3877 13.2708 43.3877C10.2183 43.3877 4.88136 46.351 4.88136 46.351L4.91064 46.0581H5.2621C5.75024 46.0581 9.55872 42.0892 9.91018 41.7768C10.2616 41.4449 10.4667 41.0446 10.5252 40.576L14.4194 23.9943C11.9787 24.0529 10.2507 24.4336 9.23542 25.1366C8.70823 25.5076 8.30796 25.8688 8.03461 26.2202C7.76125 26.5522 7.47813 26.9817 7.18525 27.5089L6.86308 27.3918ZM16.3231 23.9943C16.3231 23.9943 10.5252 39.5586 15.2249 40.8057C19.9247 42.0529 20.6797 41.7064 20.6797 41.7064C23.3962 41.6942 24.065 41.0565 25.256 40.486C26.4471 39.9155 26.7521 39.5464 28.0018 38.3504C29.2221 36.5199 29.2028 36.3857 29.2881 35.2996C29.2221 33.4691 28.4646 32.0972 27.3916 31.0284C26.142 29.7836 25.2267 28.8684 23.7306 27.9775L16.3231 23.9943Z" fill="black"/>
<path d="M66.7672 49.6776C66.8843 49.6776 67.0015 49.6776 67.1186 49.6776V49.9704C66.5719 50.0485 65.9569 50.0876 65.2735 50.0876C64.6096 50.0876 63.7798 49.9412 62.784 49.6483C61.8077 49.3554 60.9193 48.8087 60.1188 48.0081C58.4786 46.368 57.4828 44.2397 57.1314 41.6233L55.3448 28.5901L49.2529 42.3555C48.7062 43.5466 48.3742 44.5424 48.2571 45.3429H47.9642L40.3786 28.8537L39.0899 43.4099C39.0508 43.7418 39.1485 44.0347 39.3828 44.2885C39.6366 44.5424 39.91 44.6693 40.2028 44.6693H40.6714V44.9329H34.9896V44.64H35.4582C35.9853 44.64 36.4442 44.4838 36.8347 44.1714C37.2447 43.8395 37.4986 43.4099 37.5962 42.8827L39.4413 26.8914C37.7231 23.5135 35.6632 21.8245 33.2616 21.8245C33.0468 21.8245 32.8222 21.8343 32.5879 21.8538V21.5609C33.1151 21.4243 33.5447 21.3559 33.8766 21.3559C34.2085 21.3559 34.5698 21.3755 34.9603 21.4145C35.3508 21.434 35.8096 21.5219 36.3368 21.6781C36.864 21.8343 37.3619 22.0686 37.8305 22.381C38.2991 22.6739 38.7091 22.9863 39.0606 23.3182C39.4121 23.6306 39.744 23.9821 40.0564 24.3726C40.5836 25.0755 41.0034 25.7492 41.3158 26.3935L48.3742 41.6819L56.2527 24.0212H56.5163L59.2401 41.3597C59.6502 44.0933 60.5288 46.163 61.8761 47.5688C63.2428 48.9746 64.8732 49.6776 66.7672 49.6776Z" fill="black"/>
</svg>

